<svg xmlns="http://www.w3.org/2000/svg" xmlns:xlink="http://www.w3.org/1999/xlink" width="1440" height="439" viewBox="0 0 1440 439">
    <defs>
        <path id="9aij0rjf9a" d="M0 173H2183V439H0z"/>
        <path id="45uk9ickud" d="M0 210.232L192.113 210.232 192.113 0.001 0 0.001z"/>
        <filter id="rp6jiarm7c">
            <feColorMatrix in="SourceGraphic" values="0 0 0 0 0.749020 0 0 0 0 0.905882 0 0 0 0 0.933333 0 0 0 1.000000 0"/>
        </filter>
    </defs>
    <g fill="none" fill-rule="evenodd" opacity=".5">
        <g>
            <g transform="translate(0 -535) translate(-444 535)">
                <mask id="z47z0j29wb" fill="#fff">
                    <use xlink:href="#9aij0rjf9a"/>
                </mask>
                <g mask="url(#z47z0j29wb)" opacity=".7">
                    <g>
                        <g filter="url(#rp6jiarm7c)" transform="translate(-569 179)">
                            <g transform="translate(1405 34)">
                                <path fill="#000" d="M179.83 76.549c0 1.859 1.502 3.367 3.36 3.367h1.502c1.852 0 3.36-1.508 3.36-3.367h-8.222z"/>
                                <mask id="r4es9mi0fe" fill="#fff">
                                    <use xlink:href="#45uk9ickud"/>
                                </mask>
                                <path fill="#000" d="M179.822 76.677L180.173 76.677 180.173 71.637 179.822 71.637zM187.709 76.677L188.066 76.677 188.066 71.637 187.709 71.637zM183.755 76.677L184.105 76.677 184.105 71.637 183.755 71.637z" mask="url(#r4es9mi0fe)"/>
                                <path fill="#000" d="M188.433 71.978c-2.968.58-6.014.58-8.98 0-.137-.028-.251-.171-.251-.307v-.958c0-.136.114-.28.25-.308 2.967-.579 6.013-.579 8.98 0 .144.029.25.172.25.308v.958c0 .136-.106.279-.25.307" mask="url(#r4es9mi0fe)"/>
                                <path fill="#000" d="M184.166 68.079L181.492 70.76 181.263 70.531 183.944 67.85z" mask="url(#r4es9mi0fe)"/>
                                <path fill="#000" d="M183.943 67.859L186.624 70.54 186.395 70.769 183.714 68.088zM183.252 100.272c0 1.859 1.508 3.367 3.367 3.367h1.502c1.852 0 3.36-1.508 3.36-3.367h-8.23z" mask="url(#r4es9mi0fe)"/>
                                <path fill="#000" d="M183.255 100.394L183.605 100.394 183.605 95.353 183.255 95.353zM191.134 100.394L191.484 100.394 191.484 95.353 191.134 95.353zM187.173 100.394L187.53 100.394 187.53 95.353 187.173 95.353z" mask="url(#r4es9mi0fe)"/>
                                <path fill="#000" d="M191.854 95.701c-2.96.58-6.013.58-8.973 0-.143-.028-.258-.171-.258-.307v-.958c0-.143.115-.28.258-.308 2.96-.579 6.013-.579 8.973 0 .143.029.257.165.257.308v.958c0 .136-.114.279-.257.307" mask="url(#r4es9mi0fe)"/>
                                <path fill="#000" d="M187.595 91.802L184.913 94.483 184.692 94.247 187.366 91.573z" mask="url(#r4es9mi0fe)"/>
                                <path fill="#000" d="M187.371 91.581L190.045 94.263 189.823 94.484 187.142 91.81zM179.928 123.743c0 1.859 1.508 3.368 3.367 3.368h1.502c1.852 0 3.353-1.51 3.353-3.368h-8.222z" mask="url(#r4es9mi0fe)"/>
                                <path fill="#000" d="M179.93 123.867L180.28 123.867 180.28 118.827 179.93 118.827zM187.809 123.867L188.159 123.867 188.159 118.827 187.809 118.827zM183.855 123.867L184.205 123.867 184.205 118.827 183.855 118.827z" mask="url(#r4es9mi0fe)"/>
                                <path fill="#000" d="M188.53 119.169c-2.96.58-6.013.58-8.973 0-.143-.029-.257-.164-.257-.307v-.959c0-.135.114-.278.257-.307 2.96-.58 6.013-.58 8.973 0 .143.029.258.172.258.307v.959c0 .143-.115.278-.258.307" mask="url(#r4es9mi0fe)"/>
                                <path fill="#000" d="M184.271 115.273L181.59 117.947 181.368 117.718 184.042 115.044z" mask="url(#r4es9mi0fe)"/>
                                <path fill="#000" d="M184.047 115.054L186.722 117.735 186.5 117.964 183.819 115.282zM96.006 17.767c-40.82 0-74.031 33.205-74.031 74.024 0 40.82 33.212 74.031 74.03 74.031 40.82 0 74.032-33.212 74.032-74.031 0-40.82-33.212-74.024-74.031-74.024m0 149.12c-41.406 0-75.097-33.69-75.097-75.096 0-41.406 33.691-75.096 75.097-75.096 41.406 0 75.096 33.69 75.096 75.096 0 41.406-33.69 75.096-75.096 75.096" mask="url(#r4es9mi0fe)"/>
                                <path fill="#000" d="M96.006 53.37c-21.186 0-38.417 17.24-38.417 38.425 0 21.178 17.231 38.417 38.417 38.417 21.185 0 38.417-17.24 38.417-38.417 0-21.186-17.232-38.425-38.417-38.425m0 77.907c-21.779 0-39.49-17.718-39.49-39.482 0-21.78 17.711-39.49 39.49-39.49 21.772 0 39.482 17.71 39.482 39.49 0 21.764-17.71 39.482-39.482 39.482" mask="url(#r4es9mi0fe)"/>
                                <path fill="#000" d="M96.006 1.285C46.106 1.285 5.5 41.883 5.5 91.79c0 49.914 40.605 90.504 90.505 90.504 49.907 0 90.505-40.59 90.505-90.504 0-49.907-40.598-90.505-90.505-90.505m0 182.296c-50.615 0-91.792-41.177-91.792-91.791 0-50.615 41.177-91.792 91.792-91.792s91.792 41.177 91.792 91.792c0 50.614-41.177 91.791-91.792 91.791" mask="url(#r4es9mi0fe)"/>
                                <path fill="#000" d="M101.536 91.791c0 3.053-2.48 5.527-5.527 5.527-3.06 0-5.534-2.474-5.534-5.527s2.474-5.527 5.534-5.527c3.046 0 5.527 2.474 5.527 5.527" mask="url(#r4es9mi0fe)"/>
                                <path fill="#000" d="M96.006 86.795c-2.753 0-4.99 2.238-4.99 4.998 0 2.753 2.237 4.99 4.99 4.99s4.99-2.237 4.99-4.99c0-2.76-2.237-4.998-4.99-4.998m0 11.061c-3.346 0-6.07-2.717-6.07-6.063 0-3.346 2.724-6.063 6.07-6.063s6.07 2.717 6.07 6.063c0 3.346-2.724 6.063-6.07 6.063M96.006 182.94L96.006.636" mask="url(#r4es9mi0fe)"/>
                                <path fill="#000" d="M95.789 182.941L96.218 182.941 96.218.644 95.789.644zM4.858 91.791L187.154 91.791" mask="url(#r4es9mi0fe)"/>
                                <path fill="#000" d="M4.855 92.007L187.151 92.007 187.151 91.578 4.855 91.578zM31.552 156.246L160.459 27.339" mask="url(#r4es9mi0fe)"/>
                                <path fill="#000" d="M31.705 156.393L31.398 156.092 160.305 27.185 160.605 27.485zM31.552 27.337L160.459 156.244" mask="url(#r4es9mi0fe)"/>
                                <path fill="#000" d="M160.307 156.393L31.4 27.485 31.707 27.185 160.608 156.092zM174.943 137.366L17.071 46.218" mask="url(#r4es9mi0fe)"/>
                                <path fill="#000" d="M174.838 137.547L16.958 46.399 17.173 46.027 175.052 137.176zM50.432 170.728L141.58 12.849" mask="url(#r4es9mi0fe)"/>
                                <path fill="#000" d="M50.613 170.839L50.242 170.625 141.39 12.746 141.762 12.96zM119.599 179.833L72.409 3.749" mask="url(#r4es9mi0fe)"/>
                                <path fill="#000" d="M119.39 179.888L72.2 3.798 72.622 3.691 119.805 179.781zM7.958 115.385L184.048 68.202" mask="url(#r4es9mi0fe)"/>
                                <path fill="#000" d="M8.014 115.588L7.899 115.18 183.997 67.99 184.104 68.405zM184.047 115.385L7.957 68.202" mask="url(#r4es9mi0fe)"/>
                                <path fill="#000" d="M183.999 115.588L7.901 68.405 8.016 67.99 184.106 115.18zM72.412 179.833L119.602 3.749" mask="url(#r4es9mi0fe)"/>
                                <path fill="#000" d="M72.622 179.888L72.2 179.781 119.39 3.691 119.805 3.798zM141.581 170.728L50.433 12.849" mask="url(#r4es9mi0fe)"/>
                                <path fill="#000" d="M141.392 170.839L50.244 12.96 50.616 12.746 141.764 170.625zM17.07 137.366L174.942 46.218" mask="url(#r4es9mi0fe)"/>
                                <path fill="#000" d="M17.174 137.547L16.96 137.176 174.839 46.027 175.053 46.399zM107.904 182.158L84.109 1.42" mask="url(#r4es9mi0fe)"/>
                                <path fill="#000" d="M107.688 182.193L83.892 1.448 84.314 1.391 108.117 182.128zM5.633 103.689L186.37 79.894" mask="url(#r4es9mi0fe)"/>
                                <path fill="#000" d="M5.661 103.902L5.603 103.473 186.348 79.678 186.406 80.107zM40.517 164.101L151.492 19.478" mask="url(#r4es9mi0fe)"/>
                                <path fill="#000" d="M40.684 164.234L40.348 163.977 151.323 19.346 151.667 19.604zM23.689 36.302L168.32 147.277" mask="url(#r4es9mi0fe)"/>
                                <path fill="#000" d="M168.19 147.455L23.56 36.473 23.825 36.137 168.448 147.105zM180.214 126.676L11.789 56.913" mask="url(#r4es9mi0fe)"/>
                                <path fill="#000" d="M180.131 126.871L11.712 57.108 11.877 56.708 180.295 126.478zM61.122 175.999L130.884 7.581" mask="url(#r4es9mi0fe)"/>
                                <path fill="#000" d="M61.324 176.083L60.924 175.919 130.693 7.493 131.087 7.658zM130.884 175.999L61.121 7.581" mask="url(#r4es9mi0fe)"/>
                                <path fill="#000" d="M130.695 176.083L60.925 7.658 61.326 7.493 131.088 175.919zM11.791 126.676L180.216 56.913" mask="url(#r4es9mi0fe)"/>
                                <path fill="#000" d="M11.875 126.871L11.717 126.478 180.129 56.708 180.3 57.108zM186.373 103.689L5.635 79.894" mask="url(#r4es9mi0fe)"/>
                                <path fill="#000" d="M186.345 103.902L5.607 80.107 5.657 79.678 186.409 103.473zM84.108 182.158L107.904 1.42" mask="url(#r4es9mi0fe)"/>
                                <path fill="#000" d="M84.318 182.193L83.889 182.128 107.691 1.391 108.113 1.448zM151.496 164.101L40.52 19.478" mask="url(#r4es9mi0fe)"/>
                                <path fill="#000" d="M151.321 164.234L40.346 19.604 40.682 19.346 151.672 163.977zM23.689 147.281L168.32 36.306" mask="url(#r4es9mi0fe)"/>
                                <path fill="#000" d="M23.822 147.455L23.564 147.105 168.187 36.137 168.452 36.473zM91.887 191.466c0 1.859 1.508 3.367 3.367 3.367h1.502c1.852 0 3.36-1.508 3.36-3.367h-8.23z" mask="url(#r4es9mi0fe)"/>
                                <path fill="#000" d="M91.885 191.592L92.235 191.592 92.235 186.551 91.885 186.551zM99.771 191.592L100.121 191.592 100.121 186.551 99.771 186.551zM95.817 191.592L96.168 191.592 96.168 186.551 95.817 186.551z" mask="url(#r4es9mi0fe)"/>
                                <path fill="#000" d="M100.489 186.892c-2.96.579-6.013.579-8.973 0-.136-.029-.258-.165-.258-.308v-.958c0-.136.122-.279.258-.307 2.96-.58 6.013-.58 8.973 0 .143.028.257.171.257.307v.958c0 .143-.107.28-.257.308" mask="url(#r4es9mi0fe)"/>
                                <path fill="#000" d="M96.23 182.996L93.548 185.67 93.327 185.448 96.001 182.767z" mask="url(#r4es9mi0fe)"/>
                                <path fill="#000" d="M96.006 182.773L98.68 185.454 98.458 185.683 95.777 183.001zM68.321 188.393c0 1.86 1.502 3.368 3.36 3.368h1.502c1.852 0 3.36-1.509 3.36-3.368h-8.222z" mask="url(#r4es9mi0fe)"/>
                                <path fill="#000" d="M68.311 188.518L68.661 188.518 68.661 183.477 68.311 183.477zM76.198 188.518L76.555 188.518 76.555 183.477 76.198 183.477zM72.244 188.518L72.594 188.518 72.594 183.477 72.244 183.477z" mask="url(#r4es9mi0fe)"/>
                                <path fill="#000" d="M76.923 183.82c-2.967.579-6.013.579-8.98 0-.136-.03-.25-.165-.25-.308v-.958c0-.136.114-.28.25-.308 2.967-.579 6.013-.579 8.98 0 .143.029.25.172.25.308v.958c0 .143-.107.279-.25.307" mask="url(#r4es9mi0fe)"/>
                                <path fill="#000" d="M72.657 179.923L69.983 182.597 69.754 182.369 72.435 179.695z" mask="url(#r4es9mi0fe)"/>
                                <path fill="#000" d="M72.434 179.7L75.115 182.381 74.886 182.61 72.205 179.929zM46.459 179.246c0 1.86 1.508 3.36 3.367 3.36h1.502c1.852 0 3.36-1.5 3.36-3.36h-8.23z" mask="url(#r4es9mi0fe)"/>
                                <path fill="#000" d="M46.461 179.373L46.811 179.373 46.811 174.332 46.461 174.332zM54.34 179.373L54.69 179.373 54.69 174.332 54.34 174.332zM50.393 179.373L50.744 179.373 50.744 174.332 50.393 174.332z" mask="url(#r4es9mi0fe)"/>
                                <path fill="#000" d="M55.061 174.672c-2.96.58-6.013.58-8.973 0-.136-.028-.257-.164-.257-.314v-.951c0-.136.121-.279.257-.308 2.96-.579 6.013-.579 8.973 0 .15.029.258.172.258.308v.95c0 .15-.107.287-.258.315" mask="url(#r4es9mi0fe)"/>
                                <path fill="#000" d="M50.802 170.769L48.121 173.45 47.899 173.222 50.573 170.548z" mask="url(#r4es9mi0fe)"/>
                                <path fill="#000" d="M50.578 170.553L53.252 173.234 53.031 173.456 50.35 170.782zM27.474 164.792c0 1.86 1.509 3.361 3.368 3.361h1.501c1.852 0 3.353-1.502 3.353-3.36h-8.222z" mask="url(#r4es9mi0fe)"/>
                                <path fill="#000" d="M27.47 164.915L27.821 164.915 27.821 159.868 27.47 159.868zM35.357 164.915L35.707 164.915 35.707 159.868 35.357 159.868zM31.396 164.915L31.746 164.915 31.746 159.868 31.396 159.868z" mask="url(#r4es9mi0fe)"/>
                                <path fill="#000" d="M36.076 160.22c-2.967.578-6.013.578-8.973 0-.143-.03-.258-.172-.258-.315v-.951c0-.136.115-.28.258-.315 2.96-.572 6.006-.572 8.973 0 .143.036.257.179.257.315v.95c0 .144-.114.287-.257.315" mask="url(#r4es9mi0fe)"/>
                                <path fill="#000" d="M31.817 156.316L29.136 158.997 28.914 158.769 31.588 156.095z" mask="url(#r4es9mi0fe)"/>
                                <path fill="#000" d="M31.587 156.1L34.268 158.781 34.039 159.002 31.365 156.328zM13.02 145.905c0 1.859 1.509 3.36 3.368 3.36h1.501c1.852 0 3.354-1.501 3.354-3.36H13.02z" mask="url(#r4es9mi0fe)"/>
                                <path fill="#000" d="M13.013 146.032L13.37 146.032 13.37 140.992 13.013 140.992zM20.907 146.032L21.257 146.032 21.257 140.992 20.907 140.992zM16.945 146.032L17.296 146.032 17.296 140.992 16.945 140.992z" mask="url(#r4es9mi0fe)"/>
                                <path fill="#000" d="M21.622 141.332c-2.967.58-6.013.58-8.98 0-.136-.029-.25-.165-.25-.315v-.95c0-.136.114-.28.25-.315 2.967-.572 6.013-.572 8.98 0 .143.036.25.179.25.314v.951c0 .15-.107.286-.25.315" mask="url(#r4es9mi0fe)"/>
                                <path fill="#000" d="M17.363 137.429L14.682 140.11 14.453 139.881 17.134 137.207z" mask="url(#r4es9mi0fe)"/>
                                <path fill="#000" d="M17.133 137.212L19.814 139.893 19.585 140.115 16.911 137.441zM3.852 123.945c0 1.86 1.51 3.36 3.368 3.36h1.502c1.851 0 3.353-1.5 3.353-3.36H3.852z" mask="url(#r4es9mi0fe)"/>
                                <path fill="#000" d="M3.854 124.068L4.204 124.068 4.204 119.027 3.854 119.027zM11.733 124.068L12.084 124.068 12.084 119.027 11.733 119.027zM7.779 124.068L8.137 124.068 8.137 119.027 7.779 119.027z" mask="url(#r4es9mi0fe)"/>
                                <path fill="#000" d="M12.455 119.372c-2.96.58-6.014.58-8.974 0-.143-.028-.257-.164-.257-.314v-.951c0-.136.114-.28.257-.308 2.96-.579 6.013-.579 8.974 0 .143.029.257.172.257.308v.95c0 .15-.114.287-.257.315" mask="url(#r4es9mi0fe)"/>
                                <path fill="#000" d="M8.195 115.469L5.514 118.15 5.292 117.921 7.967 115.247z" mask="url(#r4es9mi0fe)"/>
                                <path fill="#000" d="M7.972 115.252L10.646 117.934 10.417 118.155 7.743 115.481zM.633 100.422c0 1.859 1.502 3.367 3.361 3.367h1.501c1.852 0 3.361-1.508 3.361-3.367H.633z" mask="url(#r4es9mi0fe)"/>
                                <path fill="#000" d="M.629 100.544L.98 100.544.98 95.503.629 95.503zM8.508 100.544L8.859 100.544 8.859 95.503 8.508 95.503zM4.555 100.544L4.905 100.544 4.905 95.503 4.555 95.503z" mask="url(#r4es9mi0fe)"/>
                                <path fill="#000" d="M9.229 95.851c-2.96.58-6.006.58-8.974 0-.136-.028-.257-.171-.257-.307v-.958c0-.136.121-.279.257-.308 2.968-.579 6.013-.579 8.974 0 .15.03.257.172.257.308v.958c0 .136-.107.279-.257.307" mask="url(#r4es9mi0fe)"/>
                                <path fill="#000" d="M4.969 91.952L2.295 94.633 2.066 94.404 4.748 91.723z" mask="url(#r4es9mi0fe)"/>
                                <path fill="#000" d="M4.746 91.735L7.427 94.416 7.199 94.638 4.517 91.964zM3.754 76.751c0 1.859 1.502 3.368 3.361 3.368h1.501c1.852 0 3.361-1.509 3.361-3.368H3.754z" mask="url(#r4es9mi0fe)"/>
                                <path fill="#000" d="M3.747 76.878L4.097 76.878 4.097 71.837 3.747 71.837zM11.633 76.878L11.991 76.878 11.991 71.837 11.633 71.837zM7.679 76.878L8.029 76.878 8.029 71.837 7.679 71.837z" mask="url(#r4es9mi0fe)"/>
                                <path fill="#000" d="M12.357 72.181c-2.968.58-6.014.58-8.98 0-.137-.028-.251-.171-.258-.307v-.958c0-.143.121-.279.257-.308 2.967-.579 6.013-.579 8.98 0 .144.029.25.165.25.308v.958c0 .136-.106.279-.25.307" mask="url(#r4es9mi0fe)"/>
                                <path fill="#000" d="M8.09 68.278L5.416 70.959 5.187 70.731 7.869 68.049z" mask="url(#r4es9mi0fe)"/>
                                <path fill="#000" d="M7.867 68.062L10.548 70.743 10.32 70.972 7.645 68.29zM12.922 54.791c0 1.86 1.502 3.368 3.36 3.368h1.502c1.852 0 3.36-1.509 3.36-3.368h-8.222z" mask="url(#r4es9mi0fe)"/>
                                <path fill="#000" d="M12.913 54.92L13.263 54.92 13.263 49.879 12.913 49.879zM20.799 54.92L21.15 54.92 21.15 49.879 20.799 49.879zM16.845 54.92L17.196 54.92 17.196 49.879 16.845 49.879z" mask="url(#r4es9mi0fe)"/>
                                <path fill="#000" d="M21.518 50.222c-2.96.579-6.013.579-8.973 0-.136-.029-.258-.172-.258-.308v-.958c0-.136.122-.279.258-.307 2.96-.58 6.013-.58 8.973 0 .15.028.257.171.257.307v.958c0 .136-.107.279-.257.308" mask="url(#r4es9mi0fe)"/>
                                <path fill="#000" d="M17.259 46.322L14.577 49.003 14.356 48.774 17.03 46.093z" mask="url(#r4es9mi0fe)"/>
                                <path fill="#000" d="M17.035 46.102L19.709 48.783 19.487 49.012 16.806 46.331zM27.327 35.904c0 1.859 1.502 3.367 3.36 3.367h1.502c1.852 0 3.36-1.508 3.36-3.367h-8.222z" mask="url(#r4es9mi0fe)"/>
                                <path fill="#000" d="M27.32 36.03L27.671 36.03 27.671 30.989 27.32 30.989zM35.207 36.03L35.557 36.03 35.557 30.989 35.207 30.989zM31.253 36.03L31.603 36.03 31.603 30.989 31.253 30.989z" mask="url(#r4es9mi0fe)"/>
                                <path fill="#000" d="M35.922 31.334c-2.96.58-6.013.58-8.973 0-.136-.028-.257-.171-.257-.307v-.958c0-.136.121-.28.257-.308 2.96-.579 6.013-.579 8.973 0 .15.029.258.172.258.308v.958c0 .136-.108.279-.258.307" mask="url(#r4es9mi0fe)"/>
                                <path fill="#000" d="M31.663 27.435L28.982 30.116 28.76 29.887 31.434 27.206z" mask="url(#r4es9mi0fe)"/>
                                <path fill="#000" d="M31.44 27.218L34.114 29.899 33.892 30.121 31.211 27.447zM46.515 21.248c0 1.859 1.502 3.367 3.36 3.367h1.502c1.852 0 3.36-1.508 3.36-3.367h-8.222z" mask="url(#r4es9mi0fe)"/>
                                <path fill="#000" d="M46.511 21.372L46.861 21.372 46.861 16.331 46.511 16.331zM54.39 21.372L54.748 21.372 54.748 16.331 54.39 16.331zM50.436 21.372L50.786 21.372 50.786 16.331 50.436 16.331z" mask="url(#r4es9mi0fe)"/>
                                <path fill="#000" d="M55.11 16.678c-2.96.58-6.006.58-8.973 0-.136-.029-.258-.172-.258-.307v-.958c0-.136.122-.28.258-.308 2.967-.58 6.013-.58 8.973 0 .15.029.257.172.257.308v.958c0 .135-.107.278-.257.307" mask="url(#r4es9mi0fe)"/>
                                <path fill="#000" d="M50.851 12.778L48.177 15.46 47.948 15.231 50.629 12.55z" mask="url(#r4es9mi0fe)"/>
                                <path fill="#000" d="M50.627 12.558L53.308 15.24 53.079 15.468 50.398 12.787zM68.223 12.084c0 1.859 1.502 3.36 3.36 3.36h1.502c1.852 0 3.36-1.502 3.36-3.36h-8.222z" mask="url(#r4es9mi0fe)"/>
                                <path fill="#000" d="M68.218 12.206L68.569 12.206 68.569 7.165 68.218 7.165zM76.097 12.206L76.448 12.206 76.448 7.165 76.097 7.165zM72.151 12.206L72.501 12.206 72.501 7.165 72.151 7.165z" mask="url(#r4es9mi0fe)"/>
                                <path fill="#000" d="M76.818 7.51c-2.96.579-6.013.579-8.973 0-.136-.029-.257-.165-.257-.308v-.95c0-.144.121-.287.257-.315 2.96-.58 6.013-.58 8.973 0 .15.028.258.171.258.314v.951c0 .143-.108.279-.258.308" mask="url(#r4es9mi0fe)"/>
                                <path fill="#000" d="M72.559 3.61L69.878 6.291 69.656 6.062 72.337 3.381z" mask="url(#r4es9mi0fe)"/>
                                <path fill="#000" d="M72.336 3.394L75.01 6.075 74.788 6.297 72.107 3.623zM91.943 9.011c0 1.86 1.508 3.36 3.367 3.36h1.495c1.851 0 3.36-1.5 3.36-3.36h-8.222z" mask="url(#r4es9mi0fe)"/>
                                <path fill="#000" d="M91.935 9.138L92.292 9.138 92.292 4.098 91.935 4.098zM99.828 9.138L100.179 9.138 100.179 4.098 99.828 4.098zM95.867 9.138L96.218 9.138 96.218 4.098 95.867 4.098z" mask="url(#r4es9mi0fe)"/>
                                <path fill="#000" d="M100.545 4.438c-2.968.58-6.013.58-8.98 0-.137-.029-.25-.164-.25-.307V3.18c0-.143.113-.286.25-.315 2.967-.58 6.012-.58 8.98 0 .143.029.25.172.25.315v.95c0 .144-.107.28-.25.308" mask="url(#r4es9mi0fe)"/>
                                <path fill="#000" d="M96.278 0.538L93.604 3.219 93.375 2.99 96.057 0.309z" mask="url(#r4es9mi0fe)"/>
                                <path fill="#000" d="M96.055.322L98.736 3.003 98.508 3.225 95.834.551zM115.515 12.084c0 1.859 1.501 3.36 3.36 3.36h1.502c1.852 0 3.36-1.502 3.36-3.36h-8.222z" mask="url(#r4es9mi0fe)"/>
                                <path fill="#000" d="M115.508 12.206L115.859 12.206 115.859 7.165 115.508 7.165zM123.395 12.206L123.745 12.206 123.745 7.165 123.395 7.165zM119.441 12.206L119.791 12.206 119.791 7.165 119.441 7.165z" mask="url(#r4es9mi0fe)"/>
                                <path fill="#000" d="M124.11 7.51c-2.96.579-6.006.579-8.973 0-.136-.029-.257-.165-.257-.308v-.95c0-.144.121-.287.257-.315 2.967-.58 6.013-.58 8.973 0 .15.028.258.171.258.314v.951c0 .143-.107.279-.258.308" mask="url(#r4es9mi0fe)"/>
                                <path fill="#000" d="M119.851 3.61L117.177 6.291 116.948 6.062 119.63 3.381z" mask="url(#r4es9mi0fe)"/>
                                <path fill="#000" d="M119.627 3.394L122.309 6.075 122.08 6.297 119.399 3.623zM137.168 21.049c0 1.859 1.508 3.36 3.367 3.36h1.502c1.852 0 3.36-1.501 3.36-3.36h-8.23z" mask="url(#r4es9mi0fe)"/>
                                <path fill="#000" d="M137.166 21.172L137.516 21.172 137.516 16.131 137.166 16.131zM145.052 21.172L145.402 21.172 145.402 16.131 145.052 16.131zM141.091 21.172L141.448 21.172 141.448 16.131 141.091 16.131z" mask="url(#r4es9mi0fe)"/>
                                <path fill="#000" d="M145.77 16.476c-2.96.579-6.013.579-8.973 0-.136-.029-.258-.165-.258-.308v-.958c0-.136.122-.279.258-.307 2.96-.58 6.013-.58 8.973 0 .143.028.257.171.257.307v.958c0 .143-.114.28-.257.308" mask="url(#r4es9mi0fe)"/>
                                <path fill="#000" d="M141.511 12.575L138.829 15.257 138.608 15.028 141.282 12.347z" mask="url(#r4es9mi0fe)"/>
                                <path fill="#000" d="M141.287 12.359L143.961 15.041 143.739 15.262 141.058 12.588zM156.258 35.754c0 1.859 1.508 3.36 3.367 3.36h1.502c1.852 0 3.353-1.501 3.353-3.36h-8.222z" mask="url(#r4es9mi0fe)"/>
                                <path fill="#000" d="M156.249 35.879L156.606 35.879 156.606 30.839 156.249 30.839zM164.143 35.879L164.493 35.879 164.493 30.839 164.143 30.839zM160.181 35.879L160.532 35.879 160.532 30.839 160.181 30.839z" mask="url(#r4es9mi0fe)"/>
                                <path fill="#000" d="M164.86 31.184c-2.968.58-6.013.58-8.974 0-.143-.029-.257-.172-.257-.307v-.959c0-.143.114-.278.257-.307 2.96-.58 6.006-.58 8.974 0 .143.029.257.164.257.307v.959c0 .135-.114.278-.257.307" mask="url(#r4es9mi0fe)"/>
                                <path fill="#000" d="M160.6 27.284L157.919 29.966 157.69 29.73 160.372 27.056z" mask="url(#r4es9mi0fe)"/>
                                <path fill="#000" d="M160.37 27.064L163.051 29.745 162.823 29.967 160.149 27.293zM170.662 54.69c0 1.86 1.509 3.368 3.368 3.368h1.501c1.852 0 3.353-1.509 3.353-3.368h-8.222z" mask="url(#r4es9mi0fe)"/>
                                <path fill="#000" d="M170.656 54.813L171.014 54.813 171.014 49.772 170.656 49.772zM178.543 54.813L178.893 54.813 178.893 49.772 178.543 49.772zM174.589 54.813L174.939 54.813 174.939 49.772 174.589 49.772z" mask="url(#r4es9mi0fe)"/>
                                <path fill="#000" d="M179.265 50.12c-2.967.58-6.013.58-8.973 0-.143-.029-.258-.172-.258-.307v-.958c0-.136.115-.28.258-.308 2.96-.58 6.006-.58 8.973 0 .143.029.25.172.25.308v.958c0 .135-.107.278-.25.307" mask="url(#r4es9mi0fe)"/>
                                <path fill="#000" d="M175.006 46.22L172.324 48.902 172.095 48.673 174.777 45.992z" mask="url(#r4es9mi0fe)"/>
                                <path fill="#000" d="M174.775 46.004L177.456 48.685 177.227 48.907 174.553 46.233zM170.76 145.751c0 1.86 1.509 3.368 3.368 3.368h1.501c1.852 0 3.36-1.509 3.36-3.368h-8.23z" mask="url(#r4es9mi0fe)"/>
                                <path fill="#000" d="M170.763 145.875L171.114 145.875 171.114 140.834 170.763 140.834zM178.643 145.875L178.993 145.875 178.993 140.834 178.643 140.834zM174.682 145.875L175.039 145.875 175.039 140.834 174.682 140.834z" mask="url(#r4es9mi0fe)"/>
                                <path fill="#000" d="M179.362 141.178c-2.96.58-6.013.58-8.973 0-.136-.028-.258-.164-.258-.307v-.958c0-.136.122-.28.258-.308 2.96-.579 6.013-.579 8.973 0 .143.029.257.172.257.308v.958c0 .143-.107.279-.257.307" mask="url(#r4es9mi0fe)"/>
                                <path fill="#000" d="M175.103 137.281L172.422 139.956 172.2 139.734 174.874 137.053z" mask="url(#r4es9mi0fe)"/>
                                <path fill="#000" d="M174.88 137.065L177.554 139.74 177.332 139.968 174.651 137.287zM156.258 164.54c0 1.853 1.508 3.361 3.367 3.361h1.502c1.852 0 3.353-1.508 3.353-3.36h-8.222z" mask="url(#r4es9mi0fe)"/>
                                <path fill="#000" d="M156.249 164.658L156.606 164.658 156.606 159.617 156.249 159.617zM164.143 164.658L164.493 164.658 164.493 159.617 164.143 159.617zM160.181 164.658L160.532 164.658 160.532 159.617 160.181 159.617z" mask="url(#r4es9mi0fe)"/>
                                <path fill="#000" d="M164.86 159.968c-2.968.579-6.013.579-8.974 0-.143-.036-.257-.172-.257-.315v-.95c0-.137.114-.28.257-.315 2.96-.58 6.006-.58 8.974 0 .143.035.257.178.257.314v.951c0 .143-.114.279-.257.315" mask="url(#r4es9mi0fe)"/>
                                <path fill="#000" d="M160.6 156.064L157.919 158.746 157.69 158.517 160.372 155.843z" mask="url(#r4es9mi0fe)"/>
                                <path fill="#000" d="M160.37 155.848L163.051 158.529 162.823 158.751 160.149 156.077zM137.524 179.246c0 1.86 1.501 3.36 3.367 3.36h1.495c1.852 0 3.36-1.5 3.36-3.36h-8.222z" mask="url(#r4es9mi0fe)"/>
                                <path fill="#000" d="M137.516 179.373L137.866 179.373 137.866 174.332 137.516 174.332zM145.402 179.373L145.76 179.373 145.76 174.332 145.402 174.332zM141.448 179.373L141.799 179.373 141.799 174.332 141.448 174.332z" mask="url(#r4es9mi0fe)"/>
                                <path fill="#000" d="M146.119 174.672c-2.96.58-6.006.58-8.973 0-.136-.028-.25-.164-.25-.314v-.951c0-.136.114-.279.25-.308 2.967-.579 6.013-.579 8.973 0 .15.029.257.172.257.308v.95c0 .15-.107.287-.257.315" mask="url(#r4es9mi0fe)"/>
                                <path fill="#000" d="M141.86 170.769L139.185 173.45 138.957 173.222 141.638 170.548z" mask="url(#r4es9mi0fe)"/>
                                <path fill="#000" d="M141.636 170.553L144.318 173.234 144.089 173.456 141.415 170.782zM115.41 188.358c0 1.86 1.509 3.368 3.368 3.368h1.501c1.852 0 3.36-1.509 3.36-3.368h-8.229z" mask="url(#r4es9mi0fe)"/>
                                <path fill="#000" d="M115.408 188.482L115.758 188.482 115.758 183.441 115.408 183.441zM123.295 188.482L123.645 188.482 123.645 183.441 123.295 183.441zM119.334 188.482L119.684 188.482 119.684 183.441 119.334 183.441z" mask="url(#r4es9mi0fe)"/>
                                <path fill="#000" d="M124.012 183.791c-2.96.572-6.013.572-8.973 0-.143-.035-.257-.171-.257-.314v-.951c0-.143.114-.286.257-.315 2.96-.579 6.013-.579 8.973 0 .143.029.258.172.258.315v.95c0 .144-.115.28-.258.315" mask="url(#r4es9mi0fe)"/>
                                <path fill="#000" d="M119.753 179.888L117.072 182.562 116.85 182.341 119.524 179.659z" mask="url(#r4es9mi0fe)"/>
                                <path fill="#000" d="M119.53 179.672L122.204 182.346 121.983 182.575 119.301 179.894zM95.112 90.541L43.918 205.413 54.085 205.413zM96.9 90.541L148.087 205.413 137.919 205.413z" mask="url(#r4es9mi0fe)"/>
                                <path fill="#000" d="M35.972 210.232L156.564 210.232 156.564 203.99 35.972 203.99z" mask="url(#r4es9mi0fe)"/>
                                <path fill="#000" d="M41.02 207.193L50.879 207.193 50.879 199.886 41.02 199.886zM141.313 207.916L151.78 207.916 151.78 200.601 141.313 200.601zM61.94 201.924L128.3 201.924 128.3 197.598 61.94 197.598z" mask="url(#r4es9mi0fe)"/>
                                <path fill="#000" d="M60.41 203.189L122.83 203.189 122.83 198.864 60.41 198.864z" mask="url(#r4es9mi0fe)"/>
                                <path fill="#000" d="M58.694 204.24L121.107 204.24 121.107 199.915 58.694 199.915z" mask="url(#r4es9mi0fe)"/>
                                <path fill="#000" d="M57.171 205.506L119.584 205.506 119.584 201.173 57.171 201.173z" mask="url(#r4es9mi0fe)"/>
                                <path fill="#000" d="M55.648 206.564L118.061 206.564 118.061 202.238 55.648 202.238z" mask="url(#r4es9mi0fe)"/>
                                <path fill="#000" d="M53.925 207.672L116.345 207.672 116.345 203.34 53.925 203.34zM66.717 203.139L129.722 203.139 129.722 198.806 66.717 198.806z" mask="url(#r4es9mi0fe)"/>
                                <path fill="#000" d="M68.454 204.198L131.453 204.198 131.453 199.872 68.454 199.872z" mask="url(#r4es9mi0fe)"/>
                                <path fill="#000" d="M69.991 205.449L132.99 205.449 132.99 201.123 69.991 201.123z" mask="url(#r4es9mi0fe)"/>
                                <path fill="#000" d="M71.529 206.514L134.527 206.514 134.527 202.181 71.529 202.181z" mask="url(#r4es9mi0fe)"/>
                                <path fill="#000" d="M73.266 207.622L136.265 207.622 136.265 203.29 73.266 203.29zM63.442 198.12L63.864 198.12 63.864 191.978 63.442 191.978zM65.465 198.12L65.88 198.12 65.88 191.978 65.465 191.978zM67.475 198.12L67.896 198.12 67.896 191.978 67.475 191.978zM69.484 198.12L69.906 198.12 69.906 191.978 69.484 191.978zM71.5 198.12L71.915 198.12 71.915 191.978 71.5 191.978zM73.516 198.12L73.931 198.12 73.931 191.978 73.516 191.978zM75.525 198.12L75.947 198.12 75.947 191.978 75.525 191.978zM77.535 198.12L77.956 198.12 77.956 191.978 77.535 191.978zM79.551 198.12L79.966 198.12 79.966 191.978 79.551 191.978zM81.56 198.12L81.982 198.12 81.982 191.978 81.56 191.978zM83.576 198.12L83.998 198.12 83.998 191.978 83.576 191.978zM85.593 198.12L86.007 198.12 86.007 191.978 85.593 191.978zM87.602 198.12L88.016 198.12 88.016 191.978 87.602 191.978zM89.611 198.12L90.033 198.12 90.033 191.978 89.611 191.978zM91.627 198.12L92.049 198.12 92.049 191.978 91.627 191.978zM93.644 198.12L94.058 198.12 94.058 191.978 93.644 191.978zM95.653 198.12L96.075 198.12 96.075 191.978 95.653 191.978zM97.662 198.12L98.084 198.12 98.084 191.978 97.662 191.978zM99.685 198.12L100.1 198.12 100.1 191.978 99.685 191.978zM101.694 198.12L102.109 198.12 102.109 191.978 101.694 191.978zM103.704 198.12L104.125 198.12 104.125 191.978 103.704 191.978zM105.72 198.12L106.135 198.12 106.135 191.978 105.72 191.978zM107.736 198.12L108.151 198.12 108.151 191.978 107.736 191.978zM109.745 198.12L110.167 198.12 110.167 191.978 109.745 191.978zM111.754 198.12L112.176 198.12 112.176 191.978 111.754 191.978zM113.771 198.12L114.186 198.12 114.186 191.978 113.771 191.978zM115.787 198.12L116.209 198.12 116.209 191.978 115.787 191.978zM117.796 198.12L118.218 198.12 118.218 191.978 117.796 191.978zM119.813 198.12L120.227 198.12 120.227 191.978 119.813 191.978zM121.822 198.12L122.236 198.12 122.236 191.978 121.822 191.978zM123.838 198.12L124.26 198.12 124.26 191.978 123.838 191.978zM125.847 198.12L126.269 198.12 126.269 191.978 125.847 191.978z" mask="url(#r4es9mi0fe)"/>
                                <path fill="#000" d="M63.828 192.264L126.126 192.264 126.126 191.978 63.828 191.978z" mask="url(#r4es9mi0fe)"/>
                            </g>
                        </g>
                        <path fill="#65C8D0" d="M1832.979 253.937L1832.979 247.985 1840.941 247.985 1840.941 259.889 1882.745 259.889 1882.745 232.114 1894.688 232.114 1894.688 240.05 1906.632 240.05 1906.632 247.985 1912.604 247.985 1912.604 186.485 1936.492 186.485 1936.492 251.953 1946.445 251.953 1946.445 182.517 1948.435 182.517 1948.435 148.24 1948.435 145.615 1948.435 136.888 1954.407 136.888 1954.407 144.823 1972.323 144.823 1972.323 158.711 1976.304 158.711 1976.304 182.517 1978.295 182.517 1978.295 257.905 1978.958 257.905 1988.248 257.905 1988.248 206.324 2000.192 206.324 2000.192 220.211 2051.948 220.211 2051.948 158.711 2065.883 158.711 2065.883 144.823 2077.826 144.823 2077.826 158.711 2097.733 158.711 2097.733 246.001 2115.648 246.001 2115.648 216.243 2127.592 216.243 2127.592 206.324 2133.564 206.324 2133.564 142.84 2139.536 142.84 2139.536 124.985 2141.526 124.985 2141.526 142.84 2161.433 142.84 2161.433 246.001 2219.161 246.001 2219.161 17.855 2231.105 17.855 2231.105 7.936 2237.077 7.936 2237.077 0 2241.058 0 2241.058 7.936 2260.964 7.936 2260.964 17.855 2288.833 17.855 2288.833 194.42 2298.786 194.42 2298.786 117.049 2318.693 117.049 2318.693 186.485 2324.664 186.485 2324.664 25.79 2328.646 25.79 2328.646 13.887 2330.636 13.887 2330.636 27.774 2372.44 27.774 2372.44 211.099 2408.271 209.893 2408.271 138.872 2440.123 138.872 2440.123 208.308 2458.037 208.308 2458.037 83.323 2479.933 83.323 2479.933 71.42 2495.859 71.42 2495.859 47.613 2495.859 35.71 2499.84 35.71 2499.84 23.807 2501.83 23.807 2501.83 35.71 2507.802 35.71 2507.802 47.613 2523.727 47.613 2523.727 121.017 2537.662 121.017 2537.662 150.775 2551.596 150.775 2551.596 168.63 2567.521 168.63 2567.521 164.662 2579.465 164.662 2579.465 206.324 2593.399 206.324 2593.399 232.114 2605.343 232.114 2605.343 238.066 2617.287 238.066 2617.287 261.872 2594.719 261.872 2592.279 261.872 2523.916 261.872 2510.49 261.872 2501.944 261.872 2495.839 261.872 2486.075 261.872 2481.192 261.872 2459.219 261.872 2456.776 261.872 2439.685 261.872 2437.244 261.872 2407.946 261.872 2371.325 261.872 2219.953 261.872 2096.658 261.872 2051.492 261.872 1998.999 261.872 1988.013 261.872 1969.701 261.872 1968.481 261.872 1946.507 261.872 1913.548 261.872 1906.222 261.872 1900.119 261.872 1895.236 261.872 1894.016 261.872 1883.029 261.872 1841.523 261.872 1831.759 261.872 1821.035 261.872 1821.035 253.937z" opacity=".2" transform="translate(-569 179)"/>
                        <path fill="#ADE1E7" d="M1842.142 33.498l-.761 49.876-9.108 17.302v32.507h-6.245v4.228h6.245v9.543h-6.245v4.225h6.245v9.537h-6.245v4.231h6.245v9.54h-6.245v4.222h6.245v65.479h-11.704v-10.874h-27.212V175.28h-2.851l-12.514-7.37-12.035 7.37h-2.851V224h-15.78v-76.982l-26.81-2.277-13.895 1.883v91.263h-8.678V224.63h-17.24l-1.291-9h-5.085v-76.11h-4.793v-2.122h-19.357v2.122h-4.793v53.407h-7.494v-32.868h-32.936v61.67h-6.389v11.188h-17.73v-90.85l-24.482-1.853-9.083 1.852v49.693h-7.3v31.67h-8.246v-7.799h-22.815v24.608h-14.54v-19.194h-9.043v-5.414c0-5.313-9.657-20.842-9.657-20.842s-9.638 15.53-9.638 20.842v5.414h-10.256v19.194h-8.954v-71.36h-5.99v-4.775h-34.338v4.775h-5.757v35.344h-17.58v33.665h-16.899v-52.62h-15.362l.261-21.998H1339.8c-10.884-10.727-21.59-4.58-26.995 0h-12.48l.012 59.557-17.26 1.272v-41.43l-18.106-1.654-.092-49.204-9.196-1.724-22.43.936-.327 76.975h-17.23v-45.52l-20.395-1.253-8.743 2.256v28.279h-15.334v34.066h-9.175v-24.394h-25.979v26.99h-10.86v-21.616h-9.169v-26.867h-4.496v-1.791h-20.498v1.791h-4.315v42.268h-10.427v21.853h-8.033v-26.026h-18.71v8.874h-1.27v-20.842h-2.339v-7.773h-1.335v-40.626l-11.66-1.7-23.617 1.7v40.626h-1.335v7.773h-1.951v20.842h-4.938v12.677h-7.165v-24.54h-18.7v-41.198h-12.925v-4.833h-13.324v4.833h-3.597v51.945h-27.21v-15.403h-15.677l-.141-49.751-28.161.098v3.582h-2.642v-3.582h-8.866v3.582h-2.758v38.636h-14.263v-13.322h-5.377c-6.477-7.153-12.691-3.332-16.009 0h-5.351v50.846h-7.933l-.064-15.279c-24.678-25.754-46.232-11.732-55.84 0h-23.74v-28.3h-9.009v-59.5h-6.263l-1.728-3.36h-25.147l-1.75 3.36h-6.057v75.9h-31.594v-59.029h-6.242l-1.75-3.36-12.489-19.086-12.655 19.087-1.727 3.36h-6.085v42.628h-11.198v31.201h-18.82v-84.544h-25.9v-16.489l-37.602 3.18v57.93H494.88v23.642h-8.663v-59.716h-6.754v-3.916h-4.668v-9.543h-8.23v-8.44h-15.978v7.195h-13.784v-2.959h-11.624v9.34h-5.524v8.075h-9.71v8.324c0 .486-5.891 0-5.891 0v12.28l-3.026 3.301h-1.672v2.92h-3.906v15.944l-10.023.068v-9.95h-20.983v-40.113h-46.192v4.78h1.718v12.69h-13.82v6.013h-6.037v6.01h-6.033v6.013h-6.036v6.01h-6.033v6.012h-6.036v38.034h-3.151v9.339h-9.111v15.761l-25.237.492c-.122-5.609-.72-35.398.301-52.694 1.743-.55 3.013-2.15 3.013-4.063 0-1.177-.481-2.25-1.27-3.023 1.537-.828 3.069-1.544 4.61-2.094 2.01-.728 4.044-1.11 5.998-.941 1.955.155 3.845.874 5.631 2.017 1.81 1.119 3.47 2.641 5.26 4.21-.697-2.275-1.955-4.369-3.744-6.102-1.727-1.69-4.136-2.935-6.708-3.17 2.09-.321 4.204-.3 6.315.202 2.394.538 4.723 1.656 7.101 2.98-1.503-2.274-3.682-4.142-6.336-5.273-2.643-1.143-5.72-1.39-8.54-.795-1.093.223-2.136.547-3.137.963.203-.159.393-.336.596-.504 1.933-1.526 3.924-2.947 6.07-4.1 2.135-1.164 4.427-2.002 7.057-2.338-2.495-.963-5.431-.74-8.003.11-2.605.853-4.968 2.262-7.058 3.931-1.853 1.477-3.492 3.167-4.965 4.995.034-.526.056-1.045.065-1.568.463-1.143.957-2.274 1.51-3.36 1-2.002 2.178-3.882 3.617-5.585 1.424-1.727 3.155-3.225 5.171-4.658-2.476.226-4.87 1.323-6.87 2.91-1.504 1.223-2.775 2.72-3.796 4.365-.261-1.72-.663-3.424-1.27-5.068-.845-2.262-2.057-4.534-4-6.038.863 2.244 1.302 4.424 1.652 6.643.076.514.132 1.018.2 1.532-.64-1.211-1.437-2.339-2.416-3.348-1.909-1.971-4.64-3.222-7.248-3.069 2.338 1.146 4.115 2.712 5.37 4.625 1.283 1.892 2.148 4.063 2.832 6.325.092.327.17.651.261.963-.482-.74-1.003-1.464-1.586-2.161-1.774-2.091-3.999-3.861-6.484-5.05-2.483-1.186-5.18-1.835-7.865-1.743 2.406 1.174 4.627 2.372 6.631 3.827 1.504 1.086 2.885 2.296 4.146 3.614-.325-.233-.641-.471-.988-.682-2.43-1.51-5.226-2.473-8.062-2.742-2.82-.257-5.661.1-8.211 1.143 2.74.236 5.34.547 7.788 1.241 2.133.584 4.149 1.434 6.033 2.51-.347-.08-.706-.15-1.068-.193-3.167-.412-6.257.572-8.74 2.073-2.507 1.522-4.587 3.525-6.204 5.842 2.473-1.364 4.83-2.742 7.279-3.68 2.43-.967 4.925-1.493 7.272-1.178 1.393.172 2.731.64 3.999 1.345-.952-.305-1.94-.525-2.94-.626-3.14-.337-6.285.357-8.982 1.644-2.707 1.309-5.066 3.134-6.969 5.35 2.667-1.183 5.226-2.342 7.847-3.088 2.596-.764 5.226-1.11 7.776-.85 1.249.132 2.482.413 3.676.826-1.047.828-1.79 1.892-2.148 3.112 1.338-.48 2.473-.963 3.516-1.198.933-.211 1.71-.211 2.486-.055.57.357 1.148.736 1.706 1.152-1.439.685-2.436 2.14-2.436 3.83 0 1.712 1.012 3.189 2.47 3.861-1.022 17.418-.424 47.241-.304 52.94l-19.553.28c.07-3.148.494-23.452-.203-35.206.967-.449 1.642-1.421 1.642-2.552 0-1.122-.663-2.085-1.608-2.543.374-.27.743-.514 1.126-.75.503-.113 1.022-.1 1.639.034.687.156 1.439.468 2.329.783-.249-.807-.733-1.501-1.43-2.048.8-.279 1.608-.459 2.44-.55 1.684-.166 3.418.057 5.133.562 1.734.492 3.419 1.265 5.183 2.036-1.26-1.458-2.81-2.666-4.609-3.525-1.773-.85-3.854-1.311-5.92-1.088-.674.07-1.325.214-1.954.406.84-.461 1.728-.773 2.64-.886 1.561-.202 3.2.144 4.808.783 1.617.617 3.17 1.534 4.811 2.43-1.07-1.532-2.44-2.855-4.102-3.864-1.642-.984-3.686-1.632-5.776-1.363-.236.033-.472.067-.696.122 1.249-.706 2.574-1.266 3.98-1.657 1.614-.446 3.335-.66 5.143-.82-1.685-.681-3.563-.929-5.426-.745-1.868.177-3.719.8-5.327 1.8-.227.144-.43.303-.653.459.844-.871 1.755-1.681 2.743-2.394 1.326-.966 2.799-1.748 4.382-2.534-1.774-.055-3.566.382-5.204 1.156-1.627.798-3.103 1.947-4.281 3.347-.38.45-.718.93-1.043 1.421.055-.214.11-.424.178-.638.45-1.486 1.012-2.92 1.865-4.185.832-1.257 2.001-2.296 3.538-3.045-1.715-.1-3.513.728-4.774 2.027-.65.66-1.179 1.406-1.608 2.204l.138-1.01c.233-1.466.528-2.9 1.101-4.386-1.292.994-2.092 2.498-2.654 3.983-.405 1.098-.66 2.217-.844 3.348-.663-1.073-1.504-2.073-2.504-2.877-1.313-1.051-2.9-1.779-4.53-1.923 1.326.951 2.462 1.935 3.416 3.079.945 1.119 1.722 2.372 2.381 3.69.363.718.688 1.457.989 2.219.015.348.036.694.058 1.03-.976-1.198-2.056-2.317-3.293-3.302-1.371-1.1-2.93-2.026-4.652-2.589-1.71-.556-3.64-.712-5.293-.08 1.743.227 3.246.786 4.664 1.548 1.415.76 2.731 1.7 4.01 2.711.139.11.259.223.394.336-.663-.272-1.348-.495-2.066-.639-1.865-.39-3.9-.238-5.652.526-1.74.74-3.195 1.984-4.183 3.482 1.575-.874 3.112-1.611 4.698-1.969 1.381-.327 2.787-.348 4.17-.137-1.708.168-3.292.987-4.436 2.09-1.182 1.16-2.004 2.535-2.477 4.036 1.182-1.034 2.283-2.04 3.474-2.776 1.19-.752 2.44-1.232 3.731-1.336 1.28-.11 2.627.147 3.968.63 1.01.355 2.01.838 3.035 1.376-.519.513-.835 1.22-.835 2.005 0 1.265.835 2.314 1.989 2.675.687 11.744.26 32.195.193 35.117l-95.223 2.608H0v1.791h2301.48v-35.857h-3.663v-7.343h-20.247v12.986l-6.14-.416v-97.065l-32.166-1.11-11.569 1.11v101.024h-8.917v-16.529h-6.687v-6.89h-4.965v-5.97h-5.978v-5.695h-13.664v-36.87h-2.517v-3.111h-36.375v3.112h-2.879v60.437h-13.164V95.666h-3.686l-.92-2.531h-38.957l-.926 2.53h-4.15v98.958h-9.733v-27.542h-35.032v31.4l-8.294 2.47-.307-3.347-6.153-4.894-5.898 5.196-.092 3.993-30.376 4.665v18.118h-15.128v-7.343h-24.995v20.548h-6.978V175.28h-4.314v-2.506h-30.696v2.506h-3.596V224h-10.664v-20.64h-13.664v-5.123h-12.103v33.16h-13.883V178.71h6.242v-4.221h-6.242v-9.54h6.242v-4.232h-6.242v-9.537h6.242v-4.225h-6.242v-9.543h6.242v-4.228h-6.242v-6.817l-8.7-16.238-1.162-76.63z" transform="translate(-569 179)"/>
                    </g>
                </g>
                <g mask="url(#z47z0j29wb)" opacity=".7">
                    <g>
                        <path fill="#ADE1E7" d="M1578.347 39.08l-.76 49.877-9.108 17.302v32.507h-6.245v4.228h6.245v9.543h-6.245v4.225h6.245v9.537h-6.245v4.231h6.245v9.54h-6.245v4.222h6.245v65.479h-11.703v-10.874h-27.212v-58.035h-2.85l-12.514-7.37-12.034 7.37h-2.85v48.721h-15.779v-76.982l-26.81-2.277-13.893 1.883v91.263h-8.678v-13.257h-17.239l-1.292-9h-5.084v-76.11h-4.793v-2.122h-19.356v2.122h-4.793v53.407h-7.493v-32.868h-32.934v61.67h-6.389V238.5h-17.73v-90.85l-24.48-1.853-9.082 1.852v49.693h-7.3v31.67h-8.245v-7.799h-22.815v24.608h-14.538v-19.194h-9.043v-5.414c0-5.313-9.656-20.842-9.656-20.842s-9.638 15.53-9.638 20.842v5.414H1192v19.194h-8.954v-71.36h-5.99v-4.775h-34.336v4.775h-5.757v35.344h-17.579v33.665h-16.898v-52.62h-15.36l.26-21.998h-11.356c-10.884-10.727-21.59-4.58-26.994 0h-12.48l.013 59.557-17.26 1.272v-41.43l-18.104-1.654-.092-49.204-9.197-1.724-22.427.936-.329 76.975h-17.23v-45.52l-20.392-1.253-8.742 2.256v28.279h-15.334v34.066h-9.174v-24.394H872.31v26.99h-10.86v-21.616h-9.168v-26.867h-4.495v-1.791H827.29v1.791h-4.314v42.268h-10.427v21.853h-8.033v-26.026h-18.709v8.874h-1.27v-20.842H782.2v-7.773h-1.335v-40.626l-11.66-1.7-23.615 1.7v40.626h-1.335v7.773h-1.952v20.842h-4.937v12.677H730.2v-24.54h-18.699v-41.198h-12.924v-4.833h-13.324v4.833h-3.596v51.945h-27.208v-15.403h-15.677l-.141-49.751-28.16.098v3.582h-2.642v-3.582h-8.864v3.582h-2.76v38.636h-14.261v-13.322h-5.376c-6.478-7.153-12.692-3.332-16.009 0h-5.351v50.846h-7.932l-.065-15.279c-24.676-25.754-46.23-11.732-55.837 0h-23.737v-28.3h-9.01v-59.5h-6.262l-1.728-3.36h-25.146l-1.75 3.36h-6.056v75.9h-31.593v-59.029h-6.242l-1.749-3.36-12.488-19.086-12.655 19.087-1.727 3.36h-6.085v42.628h-11.197v31.201H315.13v-84.544h-25.898v-16.489l-37.601 3.18v57.93h-20.476v23.642h-8.662v-59.716h-6.754v-3.916h-4.667v-9.543h-8.23v-8.44h-15.978v7.195h-13.783v-2.959h-11.624v9.34h-5.523v8.075h-9.709v8.324c0 .486-5.891 0-5.891 0v12.28l-3.026 3.301h-1.672v2.92h-3.906v15.944l-10.022.068v-9.95h-20.982V150.21h-46.19v4.78h1.718v12.69h-13.82v6.013h-6.036v6.01h-6.032v6.013H24.33v6.01h-6.033v6.012h-6.035v38.034H9.11v9.339H0v15.761l2037.662 5.249v-35.857h-3.664v-7.343h-20.246v12.986l-6.14-.416v-97.065l-32.164-1.11-11.568 1.11V239.45h-8.917v-16.529h-6.686v-6.89h-4.965v-5.97h-5.977v-5.695h-13.664v-36.87h-2.516v-3.111h-36.374v3.112h-2.878v60.437h-13.164V101.25h-3.685l-.92-2.531h-38.955l-.927 2.53h-4.148v98.958h-9.734v-27.542h-35.03v31.4l-8.294 2.47-.306-3.347-6.153-4.894-5.897 5.196-.092 3.993-30.375 4.665v18.118h-15.128v-7.343h-24.993v20.548h-6.977v-62.608h-4.315v-2.506h-30.694v2.506h-3.596v48.721h-10.663v-20.64h-13.664v-5.123h-12.102v33.16h-13.882v-52.688h6.241v-4.221h-6.24v-9.54h6.24v-4.232h-6.24v-9.537h6.24v-4.225h-6.24v-9.543h6.24v-4.228h-6.24v-6.817l-8.7-16.238-1.163-76.63z" transform="translate(1732 179)"/>
                    </g>
                </g>
                <g fill="#D7F2F5">
                    <path d="M1067.063 34.934c-.986 0-1.83-.75-1.925-1.755-.645-6.744-6.245-11.83-13.024-11.83-.942 0-1.909.11-2.873.325-1.006.228-2.015-.382-2.288-1.381-2.639-9.662-11.466-16.411-21.467-16.411-9.164 0-17.521 5.769-20.794 14.354-.226.596-.732 1.043-1.35 1.193-.62.152-1.272-.013-1.746-.438-2.493-2.234-5.695-3.465-9.014-3.465-4.305 0-8.26 1.998-10.85 5.482-.56.75-1.572.995-2.41.58-1.62-.803-3.345-1.21-5.125-1.21-6.403 0-11.611 5.224-11.611 11.645 0 .248.02.492.036.736l.007.098c.038.537-.148 1.066-.515 1.46-.365.394-.878.617-1.415.617h-40.262c-1.069 0-1.935-.87-1.935-1.94 0-1.072.866-1.941 1.935-1.941h38.31c.5-8.11 7.239-14.556 15.45-14.556 1.861 0 3.674.332 5.409.988 3.305-3.73 7.955-5.84 12.976-5.84 3.401 0 6.704 1.002 9.525 2.859C1006.488 5.735 1015.586 0 1025.486 0c11.15 0 21.057 7.146 24.678 17.584.654-.078 1.306-.117 1.95-.117 8.783 0 16.039 6.595 16.877 15.341.102 1.067-.677 2.015-1.742 2.117-.063.006-.126.01-.186.01M935.181 59h-23.273c-1.07 0-1.94-.87-1.94-1.94 0-1.072.87-1.942 1.94-1.942h23.273c1.07 0 1.94.87 1.94 1.941 0 1.072-.87 1.941-1.94 1.941M167.187 52.013c-.83 0-1.598-.544-1.847-1.387-1.363-4.603-5.483-7.929-10.25-8.273-.79-.056-1.465-.593-1.702-1.354-2.472-7.923-9.68-13.246-17.936-13.246-5.065 0-9.816 2.002-13.38 5.64-.486.494-1.199.69-1.865.513-.668-.178-1.192-.703-1.37-1.374-2.42-9.099-10.653-15.453-20.02-15.453-9.67 0-17.966 6.611-20.173 16.078-.226.967-1.137 1.611-2.117 1.483-.511-.065-.933-.094-1.33-.094-2.656 0-5.203 1.005-7.172 2.83-.49.455-1.18.624-1.821.443-2.965-.828-5.925-.215-8.285 1.538-.478.356-1.093.47-1.667.307-.573-.162-1.039-.581-1.263-1.136-1.933-4.778-6.489-7.864-11.606-7.864-6.91 0-12.533 5.659-12.533 12.616 0 2.07.49 4.05 1.457 5.881.318.602.299 1.327-.05 1.91-.348.584-.976.942-1.653.942H1.928c-1.064 0-1.928-.87-1.928-1.94 0-1.073.864-1.941 1.928-1.941h25.797c-.482-1.57-.731-3.21-.731-4.852 0-9.098 7.352-16.497 16.39-16.497 5.933 0 11.288 3.172 14.188 8.244 2.624-1.339 5.634-1.793 8.637-1.193 2.59-2.078 5.779-3.222 9.11-3.17C78.465 20.3 87.903 13.197 98.818 13.197c10.086 0 19.065 6.214 22.781 15.436 3.95-3.088 8.771-4.761 13.854-4.761 9.525 0 17.892 5.88 21.203 14.758 5.801.925 10.686 5.166 12.38 10.887.305 1.028-.276 2.109-1.297 2.415-.183.055-.369.081-.551.081" transform="translate(858)"/>
                </g>
            </g>
        </g>
    </g>
</svg>
