<svg xmlns="http://www.w3.org/2000/svg" width="38" height="38" viewBox="0 0 38 38">
    <g fill="none" fill-rule="evenodd">
        <g stroke="#002B80" stroke-width=".99">
            <g>
                <g>
                    <g>
                        <g transform="translate(-55 -495) translate(25 471) translate(6) translate(24 24) translate(7.6 4.75)">
                            <path stroke-linecap="round" stroke-linejoin="round" d="M18.826 1.9h3.182c.438 0 .792.354.792.792v25.966c0 .438-.354.792-.792.792H.792c-.438 0-.792-.354-.792-.792V2.692C0 2.254.354 1.9.792 1.9h3.116"/>
                            <path stroke-linecap="round" stroke-linejoin="round" d="M18.762 4.75L19.95 4.75 19.95 26.6 2.85 26.6 2.85 4.75 4.037 4.75"/>
                            <rect width="6.61" height="1" x="6.195" y="20.445" fill="#D8D8D8" rx=".5"/>
                            <rect width="8.51" height="1" x="6.195" y="23.295" fill="#D8D8D8" rx=".5"/>
                            <path stroke-linecap="round" stroke-linejoin="round" d="M9.5 1.9c0-1.05.85-1.9 1.9-1.9 1.05 0 1.9.85 1.9 1.9h2.85v3.8h-9.5V1.9z"/>
                            <path fill-rule="nonzero" stroke-linecap="round" stroke-linejoin="round" d="M16.463 13.719h-2.287c-1.174 1.842-1.806 2.756-1.898 2.744-.14-.018-.916-4.043-1.433-7.448-.462 1.84-1.252 5.09-1.345 5.128-.093.037-.948-.104-1.526-.424-.152-.014.012-.014-1.572 0"/>
                        </g>
                    </g>
                </g>
            </g>
        </g>
    </g>
</svg>
