<svg xmlns="http://www.w3.org/2000/svg" width="40" height="40" viewBox="0 0 40 40">
    <defs>
        <filter id="ej5dwv5a0a" width="152.7%" height="152.7%" x="-26.4%" y="-26.4%" filterUnits="objectBoundingBox">
            <feOffset in="SourceAlpha" result="shadowOffsetOuter1"/>
            <feGaussianBlur in="shadowOffsetOuter1" result="shadowBlurOuter1" stdDeviation="10"/>
            <feColorMatrix in="shadowBlurOuter1" result="shadowMatrixOuter1" values="0 0 0 0 0 0 0 0 0 0.129412 0 0 0 0 0.364706 0 0 0 0.12 0"/>
            <feMerge>
                <feMergeNode in="shadowMatrixOuter1"/>
                <feMergeNode in="SourceGraphic"/>
            </feMerge>
        </filter>
    </defs>
    <g fill="none" fill-rule="evenodd">
        <g fill="#002B7B">
            <g>
                <g filter="url(#ej5dwv5a0a)" transform="translate(-700 -563) translate(458 343) translate(188 180)">
                    <g>
                        <g>
                            <path d="M39.427 1.888c.057.375-.175.728-.53.832l-.32.07-.088.023c-.279.075-.592.182-.933.327-.985.419-1.974 1.057-2.9 1.959-2.56 2.49-4.162 6.475-4.315 12.33l-.01.492c-.04 3.392-1.001 5.654-2.614 6.945l-.133.1 4.01 10.025c1.71-.576 3.366-1.267 4.957-2.07.37-.187.821-.038 1.008.331.186.37.038.821-.332 1.008-5.56 2.805-11.873 4.302-18.435 4.302-6.439 0-12.64-1.441-18.124-4.147-.371-.183-.524-.633-.34-1.005.183-.371.633-.524 1.004-.34 1.385.683 2.817 1.282 4.289 1.795l2.97-8.91H6.025c-.414 0-.75-.335-.75-.75 0-.38.283-.693.649-.743l.101-.006h6.743v-8H6.025c-.414 0-.75-.336-.75-.75 0-.38.283-.694.649-.744l.101-.006 22.97-.001c.506-4.951 2.15-8.533 4.614-10.931 1.832-1.784 3.683-2.571 4.964-2.765.41-.062.792.22.854.629zM25.064 25.952l-.153.004H10.17l-.004.014-3.12 9.36c3.729 1.139 7.687 1.732 11.745 1.732 3.922 0 7.75-.554 11.368-1.618L26.262 25.7c-.435.16-.843.236-1.198.252zm-7.018-9.497h-3.778v8h3.778v-8zm5.473 0h-3.973v8h3.973v-8zm5.36 0h-3.86v7.995c.105-.01.257-.035.445-.085.446-.118.895-.333 1.315-.67 1.19-.953 1.956-2.685 2.045-5.455l.007-.337c.006-.494.022-.977.047-1.448z" transform="translate(17 40) translate(37)"/>
                        </g>
                    </g>
                </g>
            </g>
        </g>
    </g>
</svg>
