<svg xmlns="http://www.w3.org/2000/svg" width="40" height="40" viewBox="0 0 40 40">
    <defs>
        <filter id="d024thoyfa" width="152.7%" height="152.7%" x="-26.4%" y="-26.4%" filterUnits="objectBoundingBox">
            <feOffset in="SourceAlpha" result="shadowOffsetOuter1"/>
            <feGaussianBlur in="shadowOffsetOuter1" result="shadowBlurOuter1" stdDeviation="10"/>
            <feColorMatrix in="shadowBlurOuter1" result="shadowMatrixOuter1" values="0 0 0 0 0 0 0 0 0 0.129412 0 0 0 0 0.364706 0 0 0 0.12 0"/>
            <feMerge>
                <feMergeNode in="shadowMatrixOuter1"/>
                <feMergeNode in="SourceGraphic"/>
            </feMerge>
        </filter>
    </defs>
    <g fill="none" fill-rule="evenodd">
        <g fill="#002B7B">
            <g>
                <g filter="url(#d024thoyfa)" transform="translate(-512 -563) translate(458 343) translate(0 180)">
                    <g>
                        <g>
                            <g>
                                <path d="M20.108 2.562c3.084-3.083 8.082-3.083 11.165 0 3.084 3.084 3.084 8.083 0 11.165l-3.716 3.717-.004.004-.004.002-13.82 13.823c-3.02 3.019-7.872 3.083-10.967.193l-.199-.193c-3.084-3.082-3.084-8.08 0-11.165l3.71-3.711.01-.01.008-.008L16.383 6.287l.004-.004.003-.004zM6.813 17.978l-3.19 3.19c-2.498 2.499-2.498 6.548 0 9.045 2.498 2.498 6.546 2.498 9.044 0l3.189-3.191-9.043-9.044zM16.917 7.874l-9.044 9.044 9.044 9.043 9.044-9.044-9.044-9.043zm-1.442 12.667l.1.006c.322.044.575.296.623.614l.008.109-.007.1c-.043.32-.294.574-.615.621l-.109.008-.098-.006c-.355-.049-.63-.353-.63-.723 0-.402.327-.73.728-.73zm2.898-.032l.1.007c.32.044.575.296.623.615l.008.11-.007.098c-.043.32-.296.576-.615.624l-.109.008-.099-.007c-.356-.049-.631-.355-.631-.724 0-.402.328-.73.73-.73zm-5.792-2.88l.099.007c.32.044.574.295.622.614l.008.109-.006.099c-.044.32-.297.574-.615.622l-.108.008-.099-.006c-.357-.049-.631-.354-.631-.723 0-.404.326-.73.73-.73zm2.894 0l.1.007c.322.044.575.295.623.614l.008.109-.007.099c-.043.32-.294.574-.615.622l-.109.008-.098-.006c-.355-.049-.63-.354-.63-.723 0-.404.327-.73.728-.73zm5.794 0l.099.007c.32.044.574.295.622.614l.008.109-.007.099c-.043.32-.294.574-.613.622l-.11.008-.099-.006c-.356-.049-.63-.354-.63-.723 0-.404.326-.73.73-.73zm-2.895 0c.402 0 .729.327.729.73 0 .402-.327.729-.73.729-.403 0-.73-.327-.73-.73 0-.402.327-.729.73-.729zm0-2.882l.098.007c.32.043.576.295.624.614l.008.108-.007.1c-.043.32-.296.574-.615.622l-.109.008-.099-.007c-.356-.048-.631-.352-.631-.723 0-.402.328-.729.73-.729zm-2.899 0l.1.007c.322.043.575.295.623.614l.008.108-.007.1c-.043.32-.294.574-.615.622l-.109.008-.098-.007c-.355-.048-.63-.352-.63-.723 0-.402.327-.729.728-.729zm-2.894 0l.099.007c.32.043.574.295.622.614l.008.108-.006.1c-.044.32-.297.574-.615.622l-.108.008-.099-.007c-.357-.048-.631-.352-.631-.723 0-.402.326-.729.73-.729zm8.688 0l.099.007c.32.043.574.295.622.614l.008.108-.007.1c-.043.32-.294.574-.613.622l-.11.008-.099-.007c-.356-.048-.63-.352-.63-.723 0-.402.326-.729.73-.729zm8.758-11.303c-2.508-2.317-6.421-2.257-8.859.179l-3.19 3.19 9.044 9.043 3.19-3.19c2.438-2.436 2.497-6.349.179-8.858l-.179-.185zm-14.552 8.42l.1.007c.322.044.575.296.623.615l.008.11-.007.098c-.043.32-.294.576-.615.624l-.109.008-.098-.007c-.355-.048-.63-.355-.63-.724 0-.403.327-.73.728-.73zm2.898 0l.1.007c.32.044.575.296.623.615l.008.11-.007.098c-.043.32-.296.576-.615.624l-.109.008-.099-.007c-.356-.048-.631-.355-.631-.724 0-.403.328-.73.73-.73z" transform="translate(17 40) translate(37) translate(3 3)"/>
                            </g>
                        </g>
                    </g>
                </g>
            </g>
        </g>
    </g>
</svg>
