<svg xmlns="http://www.w3.org/2000/svg" width="40" height="40" viewBox="0 0 40 40">
    <defs>
        <filter id="d94nbde7ia" width="152.7%" height="152.7%" x="-26.4%" y="-26.4%" filterUnits="objectBoundingBox">
            <feOffset in="SourceAlpha" result="shadowOffsetOuter1"/>
            <feGaussianBlur in="shadowOffsetOuter1" result="shadowBlurOuter1" stdDeviation="10"/>
            <feColorMatrix in="shadowBlurOuter1" result="shadowMatrixOuter1" values="0 0 0 0 0 0 0 0 0 0.129412 0 0 0 0 0.364706 0 0 0 0.12 0"/>
            <feMerge>
                <feMergeNode in="shadowMatrixOuter1"/>
                <feMergeNode in="SourceGraphic"/>
            </feMerge>
        </filter>
    </defs>
    <g fill="none" fill-rule="evenodd">
        <g fill="#002B7B">
            <g>
                <g filter="url(#d94nbde7ia)" transform="translate(-888 -383) translate(458 343) translate(376)">
                    <g>
                        <g>
                            <path d="M33.35 6.433l.238.232c3.371 3.287 3.5 8.645.335 12.088l-.256.268-6.454 6.293-1.131 1.103-.001-.001-7.183 7.005c-3.414 3.329-8.86 3.329-12.274 0l-.239-.233c-3.37-3.286-3.499-8.645-.335-12.088l.257-.267 14.768-14.4c3.415-3.33 8.86-3.33 12.275 0zM14.404 15.03L7.432 21.83l-.128.128C4.59 24.74 4.59 29.16 7.262 31.942l.17.172.239.233c2.774 2.704 7.165 2.76 10.005.165l.175-.165 7.156-6.98-10.603-10.336zm7.894-7.69l-.175.166-6.588 6.42 10.602 10.339 6.469-6.306.064-.065c2.712-2.782 2.712-7.202.042-9.984l-.17-.172-.24-.232c-2.773-2.705-7.164-2.76-10.004-.166z" transform="translate(17 40) translate(37)"/>
                        </g>
                    </g>
                </g>
            </g>
        </g>
    </g>
</svg>
