<svg xmlns="http://www.w3.org/2000/svg" width="38" height="38" viewBox="0 0 38 38">
    <g fill="none" fill-rule="evenodd">
        <g stroke="#002B80">
            <g>
                <g>
                    <g>
                        <g transform="translate(-282 -495) translate(252 471) translate(6) translate(24 24) translate(5.7 3.8)">
                            <rect width="19.205" height="28.46" x=".495" y=".495" stroke-width=".99" rx="3.316"/>
                            <g stroke-width=".792">
                                <path d="M6.34.978c.33 0 .629.134.845.35.216.217.35.516.35.846 0 .33-.134.63-.35.846-.216.217-.515.35-.846.35h0-3.98c-.33 0-.629-.133-.845-.35-.217-.216-.35-.515-.35-.846 0-.33.133-.629.35-.845.216-.217.515-.35.846-.35h0z" transform="translate(1.768 22.102)"/>
                            </g>
                            <g stroke-width=".792">
                                <path d="M6.34.978c.33 0 .629.134.845.35.216.217.35.516.35.846 0 .33-.134.63-.35.846-.216.217-.515.35-.846.35h0-3.98c-.33 0-.629-.133-.845-.35-.217-.216-.35-.515-.35-.846 0-.33.133-.629.35-.845.216-.217.515-.35.846-.35h0z" transform="translate(9.727 22.102)"/>
                            </g>
                            <g stroke-width=".792">
                                <path d="M7.137.58v1.992c0 .33-.134.63-.35.846-.216.216-.515.35-.846.35-.33 0-.629-.134-.845-.35-.217-.216-.35-.515-.35-.846h0V.58h2.391z" transform="translate(1.768 15.734) rotate(-90 5.941 2.174)"/>
                                <path d="M3.954.58v1.992c0 .33-.134.63-.35.846-.217.216-.516.35-.846.35-.33 0-.63-.134-.846-.35-.217-.216-.35-.515-.35-.846h0V.58h2.392z" transform="translate(1.768 15.734) rotate(90 2.758 2.174)"/>
                            </g>
                            <g stroke-width=".792">
                                <g>
                                    <path d="M7.137.58v1.992c0 .33-.134.63-.35.846-.216.216-.515.35-.846.35-.33 0-.629-.134-.845-.35-.217-.216-.35-.515-.35-.846h0V.58h2.391z" transform="rotate(-35 36.376 -16.667) rotate(176 4.253 5.586) rotate(-90 5.941 2.174)"/>
                                    <path d="M3.954.58v1.992c0 .33-.134.63-.35.846-.217.216-.516.35-.846.35-.33 0-.63-.134-.846-.35-.217-.216-.35-.515-.35-.846h0V.58h2.392z" transform="rotate(-35 36.376 -16.667) rotate(176 4.253 5.586) rotate(90 2.758 2.174)"/>
                                </g>
                                <g>
                                    <path d="M7.137.58v1.992c0 .33-.134.63-.35.846-.216.216-.515.35-.846.35-.33 0-.629-.134-.845-.35-.217-.216-.35-.515-.35-.846h0V.58h2.391z" transform="rotate(-35 36.376 -16.667) rotate(33 1.541 8.558) rotate(-90 5.941 2.174)"/>
                                    <path d="M3.954.58v1.992c0 .33-.134.63-.35.846-.217.216-.516.35-.846.35-.33 0-.63-.134-.846-.35-.217-.216-.35-.515-.35-.846h0V.58h2.392z" transform="rotate(-35 36.376 -16.667) rotate(33 1.541 8.558) rotate(90 2.758 2.174)"/>
                                </g>
                            </g>
                            <g stroke-width=".792">
                                <path d="M7.137.58v1.992c0 .33-.134.63-.35.846-.216.216-.515.35-.846.35-.33 0-.629-.134-.845-.35-.217-.216-.35-.515-.35-.846h0V.58h2.391z" transform="translate(9.727 15.734) rotate(-90 5.941 2.174)"/>
                                <path d="M3.954.58v1.992c0 .33-.134.63-.35.846-.217.216-.516.35-.846.35-.33 0-.63-.134-.846-.35-.217-.216-.35-.515-.35-.846h0V.58h2.392z" transform="translate(9.727 15.734) rotate(90 2.758 2.174)"/>
                            </g>
                            <g stroke-width=".792">
                                <path d="M7.137.58v1.992c0 .33-.134.63-.35.846-.216.216-.515.35-.846.35-.33 0-.629-.134-.845-.35-.217-.216-.35-.515-.35-.846h0V.58h2.391z" transform="translate(1.768 9.367) rotate(-90 5.941 2.174)"/>
                                <path d="M3.954.58v1.992c0 .33-.134.63-.35.846-.217.216-.516.35-.846.35-.33 0-.63-.134-.846-.35-.217-.216-.35-.515-.35-.846h0V.58h2.392z" transform="translate(1.768 9.367) rotate(90 2.758 2.174)"/>
                            </g>
                            <g stroke-width=".792">
                                <path d="M7.137.58v1.992c0 .33-.134.63-.35.846-.216.216-.515.35-.846.35-.33 0-.629-.134-.845-.35-.217-.216-.35-.515-.35-.846h0V.58h2.391z" transform="translate(9.727 9.367) rotate(-90 5.941 2.174)"/>
                                <path d="M3.954.58v1.992c0 .33-.134.63-.35.846-.217.216-.516.35-.846.35-.33 0-.63-.134-.846-.35-.217-.216-.35-.515-.35-.846h0V.58h2.392z" transform="translate(9.727 9.367) rotate(90 2.758 2.174)"/>
                            </g>
                            <g stroke-width=".792">
                                <path d="M7.137.58v1.992c0 .33-.134.63-.35.846-.216.216-.515.35-.846.35-.33 0-.629-.134-.845-.35-.217-.216-.35-.515-.35-.846h0V.58h2.391z" transform="translate(1.768 3) rotate(-90 5.941 2.174)"/>
                                <path d="M3.954.58v1.992c0 .33-.134.63-.35.846-.217.216-.516.35-.846.35-.33 0-.63-.134-.846-.35-.217-.216-.35-.515-.35-.846h0V.58h2.392z" transform="translate(1.768 3) rotate(90 2.758 2.174)"/>
                            </g>
                            <g stroke-width=".792">
                                <path d="M7.137.58v1.992c0 .33-.134.63-.35.846-.216.216-.515.35-.846.35-.33 0-.629-.134-.845-.35-.217-.216-.35-.515-.35-.846h0V.58h2.391z" transform="translate(9.727 3) rotate(-90 5.941 2.174)"/>
                                <path d="M3.954.58v1.992c0 .33-.134.63-.35.846-.217.216-.516.35-.846.35-.33 0-.63-.134-.846-.35-.217-.216-.35-.515-.35-.846h0V.58h2.392z" transform="translate(9.727 3) rotate(90 2.758 2.174)"/>
                            </g>
                        </g>
                    </g>
                </g>
            </g>
        </g>
    </g>
</svg>
