<svg xmlns="http://www.w3.org/2000/svg" width="38" height="38" viewBox="0 0 38 38">
    <defs>
        <filter id="s5ktacdhga">
            <feColorMatrix in="SourceGraphic" values="0 0 0 0 0.000000 0 0 0 0 0.168627 0 0 0 0 0.501961 0 0 0 1.000000 0"/>
        </filter>
    </defs>
    <g fill="none" fill-rule="evenodd" stroke-linecap="round">
        <g>
            <g>
                <g>
                    <g filter="url(#s5ktacdhga)" transform="translate(-169 -344) translate(139 320) translate(6) translate(24 24)">
                        <g fill-rule="nonzero" stroke="#979797" stroke-width=".99">
                            <path d="M9.28 8.253h2.532v2.531c0 .635.515 1.15 1.15 1.15h2.271c.635 0 1.15-.515 1.15-1.15v-2.53h2.531c.636 0 1.15-.516 1.15-1.151V4.832c0-.636-.514-1.15-1.15-1.15h-2.53V1.15c0-.635-.516-1.15-1.151-1.15h-2.271c-.635 0-1.15.515-1.15 1.15v2.531H9.28c-.636 0-1.15.515-1.15 1.15v2.272c0 .635.514 1.15 1.15 1.15zM7.832 17.67l-3.85-2.232c-.598-.36-2.437-1.465-3.596.118-.69.952-.423 2.434.552 3.175 1.61 1.228 7.132 5.292 9.505 6.486 2.372 1.194 3.39 1.442 5.97 1.442h9.203" transform="translate(4.903 4.75)"/>
                            <path d="M25.522 18.08c-.672-.23-2.048-1.37-3.53-1.544-1.84-.212-3.423.308-4.7.74-.46.172-.934.309-1.415.41-1.749.29-4.21.23-4.526.23-2.001 0-2.3 1.298-2.3 2.071 0 1.696 2.14 2.3 4.141 2.3 1.806 0 5.685.231 5.724.231" transform="translate(4.903 4.75)"/>
                            <path stroke-linejoin="round" d="M28.837 27.58h-3.22v-9.5h3.22" transform="translate(4.903 4.75)"/>
                        </g>
                    </g>
                </g>
            </g>
        </g>
    </g>
</svg>
