<svg xmlns="http://www.w3.org/2000/svg" width="40" height="40" viewBox="0 0 40 40">
    <defs>
        <filter id="w4q4t18q0a" width="152.7%" height="152.7%" x="-26.4%" y="-26.4%" filterUnits="objectBoundingBox">
            <feOffset in="SourceAlpha" result="shadowOffsetOuter1"/>
            <feGaussianBlur in="shadowOffsetOuter1" result="shadowBlurOuter1" stdDeviation="10"/>
            <feColorMatrix in="shadowBlurOuter1" result="shadowMatrixOuter1" values="0 0 0 0 0 0 0 0 0 0.129412 0 0 0 0 0.364706 0 0 0 0.12 0"/>
            <feMerge>
                <feMergeNode in="shadowMatrixOuter1"/>
                <feMergeNode in="SourceGraphic"/>
            </feMerge>
        </filter>
    </defs>
    <g fill="none" fill-rule="evenodd">
        <g fill="#002B7B">
            <g>
                <g filter="url(#w4q4t18q0a)" transform="translate(-700 -383) translate(458 343) translate(188)">
                    <g>
                        <g>
                            <path d="M27.975 4c1.355 0 2.711.78 3.578 2.094l.132.212 5.139 9.514c1.931.557 3.33 2.192 3.163 4.123l-.023.201v8.649c0 .814-.506 1.372-1.28 1.435l-.148.006H37.11v4.325c0 .814-.506 1.372-1.28 1.435l-.147.006h-5.71c-.805 0-1.358-.51-1.42-1.292l-.007-.15v-4.324H11.418v4.325c0 .814-.506 1.372-1.279 1.435L9.991 36H4.28c-.805 0-1.358-.51-1.42-1.292l-.006-.15v-4.324H1.427c-.806 0-1.359-.51-1.421-1.292L0 28.792v-8.648c0-2.23 1.334-3.92 3.228-4.29l.197-.034 5.139-9.514c.546-1.378 1.875-2.23 3.489-2.301L12.275 4h15.7zm0 1.5h-15.7c-1.068 0-1.886.466-2.253 1.215l-.064.144-.075.16-5.496 10.178-.747.107c-1.204.174-2.063 1.188-2.135 2.64l-.005.2v8.59h2.855L4.354 34.5h5.564v-5.766h20.127V34.5h5.564v-5.766h2.854v-8.59l.015-.21c.157-1.11-.601-2.173-1.891-2.616l-.18-.057-.604-.174-5.407-10.015c-.552-.928-1.415-1.498-2.254-1.565l-.167-.007zM10.562 18.739c2.4 0 4 1.6 4 4s-2 4-4 4c-2.4 0-4-1.6-4-4s1.6-4 4-4zm19.982 0c2.4 0 4 1.6 4 4s-1.6 4-4 4-4-1.6-4-4 1.6-4 4-4zm-19.982 1.5c-1.572 0-2.5.928-2.5 2.5 0 1.571.928 2.5 2.5 2.5 1.336 0 2.5-1.086 2.5-2.5 0-1.572-.929-2.5-2.5-2.5zm19.982 0c-1.572 0-2.5.928-2.5 2.5 0 1.571.928 2.5 2.5 2.5 1.571 0 2.5-.929 2.5-2.5 0-1.572-.929-2.5-2.5-2.5zM26.323 9.01c.319 0 .61.179.756.463l3.542 6.918c.107.21.024.465-.185.572-.06.031-.126.047-.194.047H9.62c-.235 0-.425-.19-.425-.425 0-.065.015-.129.043-.187l3.388-6.912c.142-.291.438-.476.763-.476h12.935zm-.398 1.499H13.793l-2.45 5h17.141l-2.559-5z" transform="translate(17 40) translate(37)"/>
                        </g>
                    </g>
                </g>
            </g>
        </g>
    </g>
</svg>
