<svg xmlns="http://www.w3.org/2000/svg" width="38" height="38" viewBox="0 0 38 38">
    <g fill="none" fill-rule="evenodd" stroke-linecap="round" stroke-linejoin="round">
        <g stroke="#002B80" stroke-width="1.188">
            <g>
                <g>
                    <g>
                        <g>
                            <path d="M12.89 1.57c2.774.696 4.68 2.374 4.68 5.69 0 4.681-3.794 10.852-8.475 10.852-4.68 0-8.475-6.17-8.475-10.852 0-3.316 1.906-4.994 4.68-5.69M28.475 7.675c0 1.838-1.49 3.329-3.328 3.329-1.84 0-3.329-1.491-3.329-3.329 0-1.837 1.49-3.328 3.329-3.328 1.838 0 3.328 1.49 3.328 3.328z" transform="translate(-285 -344) translate(252 320) translate(6) translate(27 24) translate(5.542 5.542)"/>
                            <path d="M26.459 7.675c0 .725-.589 1.313-1.312 1.313-.725 0-1.313-.588-1.313-1.313s.588-1.312 1.313-1.312c.723 0 1.312.587 1.312 1.312zM7.158 1.548c0 .513-.416.93-.93.93-.512 0-.927-.417-.927-.93 0-.513.415-.93.928-.93.513 0 .929.417.929.93zM12.89 1.548c0 .513-.416.93-.93.93-.511 0-.927-.417-.927-.93 0-.513.416-.93.928-.93.513 0 .93.417.93.93z" transform="translate(-285 -344) translate(252 320) translate(6) translate(27 24) translate(5.542 5.542)"/>
                            <path d="M9.038 17.473v3.521c0 4.016 3.729 7.445 7.802 7.445h.78c4.074 0 7.527-3.429 7.527-7.445V8.987" transform="translate(-285 -344) translate(252 320) translate(6) translate(27 24) translate(5.542 5.542)"/>
                        </g>
                    </g>
                </g>
            </g>
        </g>
    </g>
</svg>
