<svg xmlns="http://www.w3.org/2000/svg" width="39" height="38" viewBox="0 0 39 38">
    <g fill="none" fill-rule="evenodd">
        <g stroke="#002B80">
            <g>
                <g>
                    <g>
                        <g>
                            <g fill-rule="nonzero" stroke-width=".99">
                                <path stroke-linecap="round" stroke-linejoin="round" d="M2.653 5.552c.04 11.172 2.216 14.704 2.31 14.85.059.091.158.141.259.141l.013-.002c.005 0 .01.003.016.003.101 0 .2-.05.259-.142.093-.146 2.27-3.677 2.31-14.85 1.485-.051 2.678-1.277 2.678-2.775C10.498 1.246 9.252 0 7.721 0 6.643 0 5.709.618 5.249 1.517 4.789.617 3.855 0 2.777 0 1.246 0 0 1.246 0 2.777c0 1.49 1.18 2.71 2.653 2.775z" transform="translate(-55 -344) translate(25.5 320) translate(6) translate(24 24) translate(4.75 4.75) translate(4.98 4.194)"/>
                                <path stroke-linejoin="round" d="M5.143.424c-.007 5.686-.007 8.641 0 8.865.011.337.138.337.308.337h2.27M5.143 20.544V12.74c0-.122-.072-.232-.184-.281-.384-.169-2.021-1.053-2.182-1.11" transform="translate(-55 -344) translate(25.5 320) translate(6) translate(24 24) translate(4.75 4.75) translate(4.98 4.194)"/>
                                <path d="M2.777 1.898c.243 0 .462.099.621.258.16.16.258.379.258.621s-.099.462-.258.621c-.159.16-.378.258-.62.258-.243 0-.463-.099-.622-.258-.159-.159-.258-.379-.258-.621s.099-.462.258-.621c.16-.16.379-.258.621-.258zM7.72 1.898c.243 0 .463.099.622.258.159.16.258.379.258.621s-.1.462-.258.621c-.16.16-.379.258-.621.258-.243 0-.462-.099-.621-.258-.16-.159-.258-.379-.259-.621 0-.242.1-.462.258-.621.16-.16.38-.258.622-.258z" transform="translate(-55 -344) translate(25.5 320) translate(6) translate(24 24) translate(4.75 4.75) translate(4.98 4.194)"/>
                            </g>
                            <path fill-rule="nonzero" stroke-linecap="round" stroke-linejoin="round" stroke-width=".99" d="M0 1.897C0 .851.851 0 1.897 0h25.254c1.046 0 1.897.851 1.897 1.897v25.254c0 1.046-.85 1.897-1.897 1.897H1.897C.851 29.048 0 28.198 0 27.151V1.897z" transform="translate(-55 -344) translate(25.5 320) translate(6) translate(24 24) translate(4.75 4.75)"/>
                            <g stroke-linecap="round" stroke-linejoin="round">
                                <path stroke-width=".792" d="M3.684 20.988V3.528" transform="translate(-55 -344) translate(25.5 320) translate(6) translate(24 24) translate(4.75 4.75) translate(15.749 3.633)"/>
                                <path fill-rule="nonzero" stroke-width=".792" d="M3.684 3.927c.542 0 .981-1.242.981-2.197 0-.956-.44-1.73-.981-1.73-.543 0-.982.774-.982 1.73 0 .955.44 2.197.982 2.197z" transform="translate(-55 -344) translate(25.5 320) translate(6) translate(24 24) translate(4.75 4.75) translate(15.749 3.633)"/>
                                <path stroke-width=".633" d="M.042 18.003c-.11-1.628-.086-3.79 1.14-5.286.956-1.167 3.32-2.943 3.987-4.428C9.003-.236 2.637 1.346 1.471 3.56c-1.165 2.216 3.698 4.372 8.8-1.149" transform="translate(-55 -344) translate(25.5 320) translate(6) translate(24 24) translate(4.75 4.75) translate(15.749 3.633)"/>
                            </g>
                        </g>
                    </g>
                </g>
            </g>
        </g>
    </g>
</svg>
