<svg xmlns="http://www.w3.org/2000/svg" width="40" height="40" viewBox="0 0 40 40">
    <defs>
        <filter id="cekchopg4a" width="152.7%" height="152.7%" x="-26.4%" y="-26.4%" filterUnits="objectBoundingBox">
            <feOffset in="SourceAlpha" result="shadowOffsetOuter1"/>
            <feGaussianBlur in="shadowOffsetOuter1" result="shadowBlurOuter1" stdDeviation="10"/>
            <feColorMatrix in="shadowBlurOuter1" result="shadowMatrixOuter1" values="0 0 0 0 0 0 0 0 0 0.129412 0 0 0 0 0.364706 0 0 0 0.12 0"/>
            <feMerge>
                <feMergeNode in="shadowMatrixOuter1"/>
                <feMergeNode in="SourceGraphic"/>
            </feMerge>
        </filter>
    </defs>
    <g fill="none" fill-rule="evenodd">
        <g fill="#002B7B">
            <g>
                <g filter="url(#cekchopg4a)" transform="translate(-888 -563) translate(458 343) translate(376 180)">
                    <g>
                        <g>
                            <g>
                                <path d="M28.5 0C35 0 40 5.221 40 12.092c0 4.227-3.156 9.033-7.208 13.38l-.615.648-.626.641c-.21.212-.423.423-.636.632l-.645.623c-.216.206-.433.41-.65.613l-.657.603c-.22.198-.44.395-.66.59l-.66.579-.662.565-.659.551-.655.537-.65.521-.645.505-.318.246-.63.48-.62.46-.606.442-.591.422-.576.402-.281.193c-.219.24-.438.27-.656.274L20 36c-.25 0-.5 0-.75-.275l-.687-.484-.757-.551-.742-.555-1.075-.826-.712-.562-1.015-.82-.53-.439-.544-.457-.556-.474-.565-.49-.572-.508-.578-.522-.582-.536-.584-.55-.584-.562-.292-.286-.58-.58-.577-.591-.57-.6c-.188-.203-.376-.406-.561-.611l-.551-.619C2.673 20.263 0 15.986 0 12.092 0 5.222 5 0 11.5 0c3.25 0 6.25 1.374 8.5 3.573C22.25 1.374 25.5 0 28.5 0zm0 1.5c-2.491 0-5.243 1.116-7.21 2.917l-.242.228L20 5.67l-1.048-1.025C16.898 2.64 14.25 1.5 11.5 1.5c-5.667 0-10 4.547-10 10.592 0 3.84 3.119 8.706 8.428 13.943 1.988 1.96 4.169 3.86 6.403 5.634l.3.237.587.458.565.434.796.598.488.36.655.47.278.194.33-.226.856-.601c1.42-1.011 2.802-2.066 4.125-3.15l.787-.654c.52-.438 1.03-.88 1.528-1.324l.74-.67c5.841-5.371 9.965-11.105 10.129-15.438l.005-.265c0-6.045-4.333-10.592-10-10.592z" transform="translate(17 40) translate(37) translate(0 4)"/>
                            </g>
                        </g>
                    </g>
                </g>
            </g>
        </g>
    </g>
</svg>
