<svg xmlns="http://www.w3.org/2000/svg" width="38" height="38" viewBox="0 0 38 38">
    <g fill="none" fill-rule="evenodd" stroke-linecap="round" stroke-linejoin="round">
        <g stroke="#002B80" stroke-width=".99">
            <g>
                <g>
                    <g>
                        <g>
                            <path d="M16.15 29.925V13.142c0-1.75 1.418-3.167 3.167-3.167h12.666c1.75 0 3.167 1.418 3.167 3.167v16.783h0M7.56 8.719v5.407c0 .736.597 1.334 1.334 1.334h2.668c.736 0 1.333-.598 1.333-1.334V8.719c0-.39-.17-.76-.465-1.013l-1.913-1.64c-.166-.142-.412-.142-.579 0l-1.912 1.64c-.296.253-.466.623-.466 1.013zM16.15 19.065L35.15 19.065M35.15 23.914L16.15 23.914M20.9 10.581L20.9 18.666M25.65 10.581L25.65 18.666M30.4 10.581L30.4 18.666M4.206 29.925L4.206.475M.93.475L13.077.475M0 29.519L4.206 25.719 8.412 29.519M10.228.709L10.228 5.599M10.228 15.675v7.843c0 .396.406 1.263 1.416 1.263 1.01 0 1.433-.762 1.433-1.263 0-.502-.222-2.022 2.81-2.022" transform="translate(-169 -646) translate(139 622) translate(6) translate(24 24) translate(.95 4.275)"/>
                        </g>
                    </g>
                </g>
            </g>
        </g>
    </g>
</svg>
